<?xml version="1.0" encoding="UTF-8"?>
<!DOCTYPE svg PUBLIC "-//W3C//DTD SVG 1.1//EN" "http://www.w3.org/Graphics/SVG/1.1/DTD/svg11.dtd">
<svg width="275mm" height="123mm" viewBox="0 0 27500 12300" version="1.1" xmlns="http://www.w3.org/2000/svg" stroke-width="28.222" stroke-linejoin="round" xml:space="preserve">
 <path fill="rgb(255,255,255)" stroke="none" d="M 13753,12336 L 0,12336 0,0 27505,0 27505,12336 13753,12336 Z"/>
 <path fill="none" stroke="rgb(179,179,179)" stroke-linejoin="round" d="M 13226,11470 L 2130,11470 2130,1488 24321,1488 24321,11470 13226,11470 Z"/>
 <path fill="none" stroke="rgb(179,179,179)" stroke-linejoin="round" d="M 24321,11469 L 2130,11469"/>
 <path fill="none" stroke="rgb(179,179,179)" stroke-linejoin="round" d="M 24321,10359 L 2130,10359"/>
 <path fill="none" stroke="rgb(179,179,179)" stroke-linejoin="round" d="M 24321,9250 L 2130,9250"/>
 <path fill="none" stroke="rgb(179,179,179)" stroke-linejoin="round" d="M 24321,8141 L 2130,8141"/>
 <path fill="none" stroke="rgb(179,179,179)" stroke-linejoin="round" d="M 24321,7032 L 2130,7032"/>
 <path fill="none" stroke="rgb(179,179,179)" stroke-linejoin="round" d="M 24321,5923 L 2130,5923"/>
 <path fill="none" stroke="rgb(179,179,179)" stroke-linejoin="round" d="M 24321,4814 L 2130,4814"/>
 <path fill="none" stroke="rgb(179,179,179)" stroke-linejoin="round" d="M 24321,3705 L 2130,3705"/>
 <path fill="none" stroke="rgb(179,179,179)" stroke-linejoin="round" d="M 24321,2596 L 2130,2596"/>
 <path fill="none" stroke="rgb(179,179,179)" stroke-linejoin="round" d="M 24321,1487 L 2130,1487"/>
 <path fill="none" stroke="rgb(179,179,179)" stroke-linejoin="round" d="M 2130,11619 L 2130,11469"/>
 <path fill="none" stroke="rgb(179,179,179)" stroke-linejoin="round" d="M 2130,11619 L 2130,11469"/>
 <path fill="none" stroke="rgb(179,179,179)" stroke-linejoin="round" d="M 6568,11619 L 6568,11469"/>
 <path fill="none" stroke="rgb(179,179,179)" stroke-linejoin="round" d="M 6568,11619 L 6568,11469"/>
 <path fill="none" stroke="rgb(179,179,179)" stroke-linejoin="round" d="M 11006,11619 L 11006,11469"/>
 <path fill="none" stroke="rgb(179,179,179)" stroke-linejoin="round" d="M 11006,11619 L 11006,11469"/>
 <path fill="none" stroke="rgb(179,179,179)" stroke-linejoin="round" d="M 15444,11619 L 15444,11469"/>
 <path fill="none" stroke="rgb(179,179,179)" stroke-linejoin="round" d="M 15444,11619 L 15444,11469"/>
 <path fill="none" stroke="rgb(179,179,179)" stroke-linejoin="round" d="M 19882,11619 L 19882,11469"/>
 <path fill="none" stroke="rgb(179,179,179)" stroke-linejoin="round" d="M 19882,11619 L 19882,11469"/>
 <path fill="none" stroke="rgb(179,179,179)" stroke-linejoin="round" d="M 24321,11619 L 24321,11469"/>
 <path fill="none" stroke="rgb(179,179,179)" stroke-linejoin="round" d="M 24321,11619 L 24321,11469"/>
 <path fill="none" stroke="rgb(179,179,179)" stroke-linejoin="round" d="M 2130,11469 L 24321,11469"/>
 <path fill="none" stroke="rgb(179,179,179)" stroke-linejoin="round" d="M 1980,11469 L 2130,11469"/>
 <path fill="none" stroke="rgb(179,179,179)" stroke-linejoin="round" d="M 1980,11469 L 2130,11469"/>
 <path fill="none" stroke="rgb(179,179,179)" stroke-linejoin="round" d="M 1980,10359 L 2130,10359"/>
 <path fill="none" stroke="rgb(179,179,179)" stroke-linejoin="round" d="M 1980,10359 L 2130,10359"/>
 <path fill="none" stroke="rgb(179,179,179)" stroke-linejoin="round" d="M 1980,9250 L 2130,9250"/>
 <path fill="none" stroke="rgb(179,179,179)" stroke-linejoin="round" d="M 1980,9250 L 2130,9250"/>
 <path fill="none" stroke="rgb(179,179,179)" stroke-linejoin="round" d="M 1980,8141 L 2130,8141"/>
 <path fill="none" stroke="rgb(179,179,179)" stroke-linejoin="round" d="M 1980,8141 L 2130,8141"/>
 <path fill="none" stroke="rgb(179,179,179)" stroke-linejoin="round" d="M 1980,7032 L 2130,7032"/>
 <path fill="none" stroke="rgb(179,179,179)" stroke-linejoin="round" d="M 1980,7032 L 2130,7032"/>
 <path fill="none" stroke="rgb(179,179,179)" stroke-linejoin="round" d="M 1980,5923 L 2130,5923"/>
 <path fill="none" stroke="rgb(179,179,179)" stroke-linejoin="round" d="M 1980,5923 L 2130,5923"/>
 <path fill="none" stroke="rgb(179,179,179)" stroke-linejoin="round" d="M 1980,4814 L 2130,4814"/>
 <path fill="none" stroke="rgb(179,179,179)" stroke-linejoin="round" d="M 1980,4814 L 2130,4814"/>
 <path fill="none" stroke="rgb(179,179,179)" stroke-linejoin="round" d="M 1980,3705 L 2130,3705"/>
 <path fill="none" stroke="rgb(179,179,179)" stroke-linejoin="round" d="M 1980,3705 L 2130,3705"/>
 <path fill="none" stroke="rgb(179,179,179)" stroke-linejoin="round" d="M 1980,2596 L 2130,2596"/>
 <path fill="none" stroke="rgb(179,179,179)" stroke-linejoin="round" d="M 1980,2596 L 2130,2596"/>
 <path fill="none" stroke="rgb(179,179,179)" stroke-linejoin="round" d="M 1980,1487 L 2130,1487"/>
 <path fill="none" stroke="rgb(179,179,179)" stroke-linejoin="round" d="M 1980,1487 L 2130,1487"/>
 <path fill="none" stroke="rgb(179,179,179)" stroke-linejoin="round" d="M 2130,11469 L 2130,1487"/>
 <path fill="rgb(0,69,134)" stroke="none" d="M 20437,11469 L 21547,11469 21547,6784 20437,6784 20437,11469 Z"/>
 <path fill="rgb(0,69,134)" stroke="none" d="M 15998,11469 L 17108,11469 17108,6926 15998,6926 15998,11469 Z"/>
 <path fill="rgb(0,69,134)" stroke="none" d="M 11561,11469 L 12671,11469 12671,10356 11561,10356 11561,11469 Z"/>
 <path fill="rgb(0,69,134)" stroke="none" d="M 7123,11469 L 8232,11469 8232,2934 7123,2934 7123,11469 Z"/>
 <path fill="rgb(0,69,134)" stroke="none" d="M 2684,11469 L 3794,11469 3794,11101 2684,11101 2684,11469 Z"/>
 <path fill="rgb(255,66,14)" stroke="none" d="M 21547,11469 L 22656,11469 22656,10744 21547,10744 21547,11469 Z"/>
 <path fill="rgb(255,66,14)" stroke="none" d="M 17108,11469 L 18218,11469 18218,7001 17108,7001 17108,11469 Z"/>
 <path fill="rgb(255,66,14)" stroke="none" d="M 12671,11469 L 13779,11469 13779,10325 12671,10325 12671,11469 Z"/>
 <path fill="rgb(255,66,14)" stroke="none" d="M 8232,11469 L 9342,11469 9342,2905 8232,2905 8232,11469 Z"/>
 <path fill="rgb(255,66,14)" stroke="none" d="M 3794,11469 L 4904,11469 4904,11148 3794,11148 3794,11469 Z"/>
 <path fill="rgb(87,157,28)" stroke="none" d="M 22656,11469 L 23766,11469 23766,10919 22656,10919 22656,11469 Z"/>
 <path fill="rgb(87,157,28)" stroke="none" d="M 18218,11469 L 19327,11469 19327,11201 18218,11201 18218,11469 Z"/>
 <path fill="rgb(87,157,28)" stroke="none" d="M 13779,11469 L 14889,11469 14889,11205 13779,11205 13779,11469 Z"/>
 <path fill="rgb(87,157,28)" stroke="none" d="M 9342,11469 L 10452,11469 10452,11191 9342,11191 9342,11469 Z"/>
 <path fill="rgb(87,157,28)" stroke="none" d="M 4904,11469 L 6013,11469 6013,11196 4904,11196 4904,11469 Z"/>
 <text class="TextShape"><tspan class="TextParagraph" font-family="Liberation Sans, sans-serif" font-size="388px" font-weight="400"><tspan class="TextPosition" x="3330" y="12010"><tspan fill="rgb(0,0,0)" stroke="none">dnf upgrade</tspan></tspan></tspan></text>
 <text class="TextShape"><tspan class="TextParagraph" font-family="Liberation Sans, sans-serif" font-size="388px" font-weight="400"><tspan class="TextPosition" x="7054" y="12010"><tspan fill="rgb(0,0,0)" stroke="none">dnf upgrade-minimal</tspan></tspan></tspan></text>
 <text class="TextShape"><tspan class="TextParagraph" font-family="Liberation Sans, sans-serif" font-size="388px" font-weight="400"><tspan class="TextPosition" x="11334" y="12010"><tspan fill="rgb(0,0,0)" stroke="none">dnf upgrade --security</tspan></tspan></tspan></text>
 <text class="TextShape"><tspan class="TextParagraph" font-family="Liberation Sans, sans-serif" font-size="388px" font-weight="400"><tspan class="TextPosition" x="15944" y="12010"><tspan fill="rgb(0,0,0)" stroke="none">dnf upgrade --bugfix</tspan></tspan></tspan></text>
 <text class="TextShape"><tspan class="TextParagraph" font-family="Liberation Sans, sans-serif" font-size="388px" font-weight="400"><tspan class="TextPosition" x="20170" y="12010"><tspan fill="rgb(0,0,0)" stroke="none">dnf reinstall $(rpm -qa)</tspan></tspan></tspan></text>
 <text class="TextShape"><tspan class="TextParagraph" font-family="Liberation Sans, sans-serif" font-size="353px" font-weight="400"><tspan class="TextPosition" x="1695" y="11549"><tspan fill="rgb(0,0,0)" stroke="none">0</tspan></tspan></tspan></text>
 <text class="TextShape"><tspan class="TextParagraph" font-family="Liberation Sans, sans-serif" font-size="353px" font-weight="400"><tspan class="TextPosition" x="1510" y="10439"><tspan fill="rgb(0,0,0)" stroke="none">10</tspan></tspan></tspan></text>
 <text class="TextShape"><tspan class="TextParagraph" font-family="Liberation Sans, sans-serif" font-size="353px" font-weight="400"><tspan class="TextPosition" x="1510" y="9330"><tspan fill="rgb(0,0,0)" stroke="none">20</tspan></tspan></tspan></text>
 <text class="TextShape"><tspan class="TextParagraph" font-family="Liberation Sans, sans-serif" font-size="353px" font-weight="400"><tspan class="TextPosition" x="1510" y="8221"><tspan fill="rgb(0,0,0)" stroke="none">30</tspan></tspan></tspan></text>
 <text class="TextShape"><tspan class="TextParagraph" font-family="Liberation Sans, sans-serif" font-size="353px" font-weight="400"><tspan class="TextPosition" x="1510" y="7112"><tspan fill="rgb(0,0,0)" stroke="none">40</tspan></tspan></tspan></text>
 <text class="TextShape"><tspan class="TextParagraph" font-family="Liberation Sans, sans-serif" font-size="353px" font-weight="400"><tspan class="TextPosition" x="1510" y="6002"><tspan fill="rgb(0,0,0)" stroke="none">50</tspan></tspan></tspan></text>
 <text class="TextShape"><tspan class="TextParagraph" font-family="Liberation Sans, sans-serif" font-size="353px" font-weight="400"><tspan class="TextPosition" x="1510" y="4893"><tspan fill="rgb(0,0,0)" stroke="none">60</tspan></tspan></tspan></text>
 <text class="TextShape"><tspan class="TextParagraph" font-family="Liberation Sans, sans-serif" font-size="353px" font-weight="400"><tspan class="TextPosition" x="1510" y="3784"><tspan fill="rgb(0,0,0)" stroke="none">70</tspan></tspan></tspan></text>
 <text class="TextShape"><tspan class="TextParagraph" font-family="Liberation Sans, sans-serif" font-size="353px" font-weight="400"><tspan class="TextPosition" x="1510" y="2675"><tspan fill="rgb(0,0,0)" stroke="none">80</tspan></tspan></tspan></text>
 <text class="TextShape"><tspan class="TextParagraph" font-family="Liberation Sans, sans-serif" font-size="353px" font-weight="400"><tspan class="TextPosition" x="1510" y="1566"><tspan fill="rgb(0,0,0)" stroke="none">90</tspan></tspan></tspan></text>
 <text class="TextShape"><tspan class="TextParagraph" font-family="Liberation Sans, sans-serif" font-size="353px" font-weight="400"><tspan class="TextPosition" x="3001" y="10922"><tspan fill="rgb(0,69,134)" stroke="none">3.3</tspan></tspan></tspan></text>
 <text class="TextShape"><tspan class="TextParagraph" font-family="Liberation Sans, sans-serif" font-size="353px" font-weight="400"><tspan class="TextPosition" x="7347" y="2755"><tspan fill="rgb(0,69,134)" stroke="none">77.0</tspan></tspan></tspan></text>
 <text class="TextShape"><tspan class="TextParagraph" font-family="Liberation Sans, sans-serif" font-size="353px" font-weight="400"><tspan class="TextPosition" x="11785" y="10177"><tspan fill="rgb(0,69,134)" stroke="none">10.0</tspan></tspan></tspan></text>
 <text class="TextShape"><tspan class="TextParagraph" font-family="Liberation Sans, sans-serif" font-size="353px" font-weight="400"><tspan class="TextPosition" x="16223" y="6747"><tspan fill="rgb(0,69,134)" stroke="none">41.0</tspan></tspan></tspan></text>
 <text class="TextShape"><tspan class="TextParagraph" font-family="Liberation Sans, sans-serif" font-size="353px" font-weight="400"><tspan class="TextPosition" x="20662" y="6605"><tspan fill="rgb(0,69,134)" stroke="none">42.2</tspan></tspan></tspan></text>
 <text class="TextShape"><tspan class="TextParagraph" font-family="Liberation Sans, sans-serif" font-size="353px" font-weight="400"><tspan class="TextPosition" x="4111" y="10969"><tspan fill="rgb(255,66,14)" stroke="none">2.9</tspan></tspan></tspan></text>
 <text class="TextShape"><tspan class="TextParagraph" font-family="Liberation Sans, sans-serif" font-size="353px" font-weight="400"><tspan class="TextPosition" x="8456" y="2726"><tspan fill="rgb(255,66,14)" stroke="none">77.2</tspan></tspan></tspan></text>
 <text class="TextShape"><tspan class="TextParagraph" font-family="Liberation Sans, sans-serif" font-size="353px" font-weight="400"><tspan class="TextPosition" x="12894" y="10146"><tspan fill="rgb(255,66,14)" stroke="none">10.3</tspan></tspan></tspan></text>
 <text class="TextShape"><tspan class="TextParagraph" font-family="Liberation Sans, sans-serif" font-size="353px" font-weight="400"><tspan class="TextPosition" x="17333" y="6822"><tspan fill="rgb(255,66,14)" stroke="none">40.3</tspan></tspan></tspan></text>
 <text class="TextShape"><tspan class="TextParagraph" font-family="Liberation Sans, sans-serif" font-size="353px" font-weight="400"><tspan class="TextPosition" x="21864" y="10565"><tspan fill="rgb(255,66,14)" stroke="none">6.5</tspan></tspan></tspan></text>
 <text class="TextShape"><tspan class="TextParagraph" font-family="Liberation Sans, sans-serif" font-size="353px" font-weight="400"><tspan class="TextPosition" x="5220" y="11017"><tspan fill="rgb(87,157,28)" stroke="none">2.5</tspan></tspan></tspan></text>
 <text class="TextShape"><tspan class="TextParagraph" font-family="Liberation Sans, sans-serif" font-size="353px" font-weight="400"><tspan class="TextPosition" x="9659" y="11012"><tspan fill="rgb(87,157,28)" stroke="none">2.5</tspan></tspan></tspan></text>
 <text class="TextShape"><tspan class="TextParagraph" font-family="Liberation Sans, sans-serif" font-size="353px" font-weight="400"><tspan class="TextPosition" x="14097" y="11026"><tspan fill="rgb(87,157,28)" stroke="none">2.4</tspan></tspan></tspan></text>
 <text class="TextShape"><tspan class="TextParagraph" font-family="Liberation Sans, sans-serif" font-size="353px" font-weight="400"><tspan class="TextPosition" x="18536" y="11022"><tspan fill="rgb(87,157,28)" stroke="none">2.4</tspan></tspan></tspan></text>
 <text class="TextShape"><tspan class="TextParagraph" font-family="Liberation Sans, sans-serif" font-size="353px" font-weight="400"><tspan class="TextPosition" x="22974" y="10740"><tspan fill="rgb(87,157,28)" stroke="none">5.0</tspan></tspan></tspan></text>
 <text class="TextShape"><tspan class="TextParagraph" font-family="Liberation Sans, sans-serif" font-size="459px" font-weight="400"><tspan class="TextPosition" x="11993" y="837"><tspan fill="rgb(0,0,0)" stroke="none">DNF performance</tspan></tspan></tspan></text>
 <path fill="rgb(0,69,134)" stroke="none" d="M 25093,5854 L 24987,5854 24987,5643 25198,5643 25198,5854 25093,5854 Z"/>
 <path fill="rgb(255,66,14)" stroke="none" d="M 25093,6272 L 24987,6272 24987,6062 25198,6062 25198,6272 25093,6272 Z"/>
 <path fill="rgb(87,157,28)" stroke="none" d="M 25093,6691 L 24987,6691 24987,6480 25198,6480 25198,6691 25093,6691 Z"/>
 <text class="TextShape"><tspan class="TextParagraph" font-family="Liberation Sans, sans-serif" font-size="353px" font-weight="400"><tspan class="TextPosition" x="25298" y="5827"><tspan fill="rgb(0,0,0)" stroke="none">libdnf-0.9.1</tspan></tspan></tspan></text>
 <text class="TextShape"><tspan class="TextParagraph" font-family="Liberation Sans, sans-serif" font-size="353px" font-weight="400"><tspan class="TextPosition" x="25298" y="6245"><tspan fill="rgb(0,0,0)" stroke="none">libdnf-0.11.1</tspan></tspan></tspan></text>
 <text class="TextShape"><tspan class="TextParagraph" font-family="Liberation Sans, sans-serif" font-size="353px" font-weight="400"><tspan class="TextPosition" x="25298" y="6664"><tspan fill="rgb(0,0,0)" stroke="none">libdnf-0.13.0</tspan></tspan></tspan></text>
 <text class="TextShape" transform="translate(784,7290) rotate(-90) translate(-784,-7290)"><tspan class="TextParagraph" font-family="Liberation Sans, sans-serif" font-size="318px" font-weight="400"><tspan class="TextPosition" x="784" y="7290"><tspan fill="rgb(0,0,0)" stroke="none">Time (s)</tspan></tspan></tspan></text>
</svg>